<?xml version="1.0" encoding="utf-8"?>
<!-- Generator: Adobe Illustrator 16.0.0, SVG Export Plug-In . SVG Version: 6.00 Build 0)  -->
<!DOCTYPE svg PUBLIC "-//W3C//DTD SVG 1.1//EN" "http://www.w3.org/Graphics/SVG/1.1/DTD/svg11.dtd">
<svg version="1.1" id="Layer_1" xmlns="http://www.w3.org/2000/svg" xmlns:xlink="http://www.w3.org/1999/xlink" x="0px" y="0px"
	 width="32px" height="32px" viewBox="0 0 32 32" enable-background="new 0 0 32 32" xml:space="preserve">
<g>
	<path fill="#63B6AE" d="M32,28.8c0,1.767-1.433,3.2-3.2,3.2H3.2C1.433,32,0,30.566,0,28.8V3.2C0,1.433,1.433,0,3.2,0h25.6
		C30.567,0,32,1.433,32,3.2V28.8z"/>
	<g>
		<g display="none">
			<path display="inline" d="M11.182,19.828c0.084,0.093,0.169,0.269,0.257,0.229c0.042,0.003,0.079-0.002,0.114-0.005l0.145,0.077
				l0.606,0.311c0.433,0.205,0.842,0.443,1.283,0.663l0.328,0.165l0.01,0.005c0.016,0.027-0.032-0.058,0.037,0.061l0.003,0.001
				l0.008,0.002l0.03,0.008l0.06,0.017l0.12,0.032l0.239,0.063c0.329,0.095,0.592,0.149,0.945,0.36l0.992,0.559
				c0.314,0.178,0.649,0.363,0.924,0.562l0.849,0.572c0.144,0.104,0.27,0.165,0.396,0.23c0.126,0.06,0.265,0.157,0.364,0.141
				l0.159,0.011c0.056,0.012,0.107,0.01,0.13-0.064c0.025-0.052,0.046-0.103,0.064-0.154l0.014-0.04l0.007-0.02l0.003-0.01
				l0.002-0.005v-0.002c0.04,0.069-0.345-0.62-0.18-0.328l0.116,0.031l0.234,0.062l0.116,0.031l0.059,0.015
				c0.017,0-0.002-0.063-0.002-0.093c-0.034-0.291-0.144-0.597-0.232-0.854c-0.077-0.417-0.262-0.851-0.539-1.325
				c-0.267-0.484-0.603-1.039-1.036-1.535c-0.426-0.489-0.933-0.988-1.494-1.297c-0.284-0.151-0.581-0.253-0.905-0.308
				c-0.161-0.025-0.342-0.035-0.531-0.027c-0.11,0.004-0.219,0.019-0.328,0.031l-0.243,0.038l-0.47,0.099l2.31,20.588
				c-0.056-0.01-0.112-0.026-0.167-0.055l3.698-20.056l-0.4-0.138l-0.208-0.062l-0.299-0.071c-0.216-0.047-0.288-0.055-0.44-0.078
				c-0.291-0.043-0.468-0.042-0.687-0.049c-0.402,0.004-0.762,0.062-1.066,0.123c-0.323,0.077-0.6,0.193-0.859,0.309
				c-0.271,0.133-0.481,0.227-0.7,0.406c-0.209,0.165-0.375,0.324-0.543,0.501c-0.169,0.158-0.267,0.385-0.377,0.588
				c-0.113,0.217-0.167,0.404-0.229,0.609c-0.062,0.205-0.099,0.403-0.108,0.586c-0.002,0.208,0.023,0.459,0.066,0.671
				c0.05,0.211,0.112,0.419,0.187,0.622c0.06,0.195,0.177,0.407,0.32,0.632c0.136,0.216,0.283,0.427,0.441,0.631
				c0.083,0.106,0.157,0.183,0.259,0.295l0.335,0.344c0.229,0.225,0.467,0.442,0.717,0.646c0.25,0.199,0.509,0.39,0.775,0.572
				c0.291,0.205,0.654,0.453,0.992,0.661l1.549,1.266c0.253,0.305,0.531,0.65,0.737,0.952c0.181,0.279,0.354,0.567,0.52,0.862
				c0.16,0.297,0.305,0.604,0.441,0.919c0.143,0.324,0.268,0.642,0.315,0.907c0.06,0.286,0.107,0.579,0.144,0.879l0.046,0.453
				c0.005,0.141-0.019,0.275-0.031,0.415c-0.032,0.276-0.075,0.559-0.131,0.843c-0.065,0.281-0.155,0.593-0.268,0.865
				c-0.12,0.251-0.272,0.506-0.453,0.763c-0.181,0.255-0.349,0.506-0.585,0.76c-0.233,0.244-0.451,0.521-0.744,0.71
				c-0.295,0.206-0.583,0.404-0.92,0.589c-0.346,0.196-0.683,0.322-1.083,0.459c-0.388,0.127-0.793,0.251-1.245,0.322
				c-0.433,0.062-0.922,0.105-1.452,0.093c-0.283-0.018-0.523-0.023-0.877-0.083c-0.183-0.031-0.288-0.044-0.534-0.101l-0.345-0.084
				l-0.231-0.069l-0.424-0.146c-4.972-1.708-7.618-7.123-5.91-12.095c0.822-2.393,2.502-4.247,4.579-5.336l5.029-2.625
				c0.056-0.028,0.112-0.045,0.167-0.055c5.614-0.974,10.956,2.787,11.931,8.401c0.955,5.502-2.638,10.741-8.066,11.866l-1.555,0.32
				L17.9,38.579l-0.328,0.053c-0.166,0.02-0.332,0.041-0.499,0.052c-0.303,0.018-0.599,0.02-0.875-0.004
				c-0.555-0.046-1.083-0.155-1.596-0.325c-1.021-0.341-1.981-0.949-2.843-1.587c-0.87-0.646-1.617-1.419-2.263-2.163
				c-0.659-0.735-1.178-1.49-1.564-2.249c-0.235-0.436-0.479-0.93-0.653-1.403c-0.017-0.053-0.055-0.138-0.054-0.163l0.015-0.059
				l0.028-0.117l0.057-0.235l0.029-0.118c0.164,0.291-0.222-0.4-0.183-0.332L7.168,29.92l-0.003-0.015l-0.006-0.029l-0.012-0.059
				l-0.023-0.118l-0.081-0.468c-0.028-0.178-0.02-0.287-0.006-0.383l0.032-0.311c0.012-0.23,0.072-0.35,0.116-0.505
				c0.046-0.15,0.091-0.306,0.151-0.417c0.111-0.252,0.224-0.494,0.34-0.715c0.107-0.23,0.247-0.464,0.372-0.706
				c0.125-0.26,0.261-0.446,0.386-0.687c0.154-0.205,0.181-0.547,0.286-0.856l0.07-0.237l0.035-0.119l0.018-0.06l0.009-0.029
				l0.002-0.008l0.001-0.004c0.068,0.117,0.019,0.03,0.034,0.056l0-0.014L8.87,23.805c-0.016-0.582-0.05-1.153,0-1.789
				c0.019-0.311,0.044-0.627,0.087-0.971l0.035-0.251c0.008-0.114,0.02-0.231,0.035-0.342c0.021-0.261,0.104-0.318,0.162-0.454
				L11.182,19.828z"/>
		</g>
		<path fill="#FFFFFF" d="M15.996,28.191c0,0,1.077,0.632,2.487-1.095c1.222-1.495,0.353-2.136,2.073-4.63
			c1.712-2.48,1.454-4.859,1.771-5.371s2.473-1.998,3.163-3.335c0.688-1.337,1.144-1.987,1.702-5.758
			c0.561-3.771,1.557-3.945,0.414-4.334c-0.257-0.088-0.673,0.027-0.973,0.269c-1.021,0.821-1.533,0.754-3.625,3.305
			c0,0-3.09,4.963-3.649,4.938c-0.56-0.023-1.775-0.361-2.846-0.314h-1.027c-1.07-0.047-2.287,0.291-2.846,0.314
			c-0.56,0.024-3.649-4.64-3.649-4.64c-2.092-2.55-2.605-2.483-3.625-3.304c-0.3-0.242-0.717-0.356-0.973-0.27
			C3.25,4.357,4.248,4.532,4.807,8.303s1.014,4.121,1.703,5.458c0.69,1.337,2.847,2.823,3.163,3.335
			c0.316,0.512,0.059,2.891,1.771,5.371c1.721,2.494,0.852,3.135,2.073,4.63c1.411,1.727,2.488,1.095,2.488,1.095"/>
		<g>
			<circle fill="#63B6AE" cx="19.236" cy="19.679" r="0.681"/>
			<circle fill="#63B6AE" cx="12.765" cy="19.679" r="0.681"/>
		</g>
		<path fill="#63B6AE" d="M16.024,26.464c-0.677-0.053-1.269,0.19-1.092,0.778c0.146,0.483,0.418,0.841,1.064,0.949
			c0.646,0.107,1.149-0.73,1.198-1.12C17.243,26.683,17.088,26.547,16.024,26.464z"/>
		<path fill="#63B6AE" d="M5.02,4.53c0,0,0.165,0.121,0.44,0.347c0.138,0.112,0.303,0.252,0.489,0.417
			c0.186,0.164,0.394,0.352,0.614,0.564C6.783,6.07,7.018,6.305,7.259,6.56c0.243,0.255,0.49,0.531,0.738,0.825
			c0.248,0.294,0.498,0.604,0.735,0.933c0.238,0.328,0.47,0.671,0.688,1.023c0.217,0.353,0.426,0.713,0.616,1.079
			c0.191,0.365,0.358,0.739,0.483,1.115c0.125,0.377,0.21,0.754,0.26,1.116c0.052,0.362,0.07,0.709,0.062,1.028
			c-0.003,0.079-0.003,0.157-0.01,0.233s-0.013,0.15-0.019,0.223c-0.019,0.145-0.034,0.28-0.061,0.407
			c-0.044,0.254-0.108,0.47-0.164,0.645c-0.062,0.174-0.113,0.307-0.156,0.396c-0.041,0.09-0.064,0.136-0.064,0.136l-0.083-0.021
			c0,0-0.001-0.052,0-0.147c0-0.049,0.004-0.106,0.002-0.176c0-0.068-0.001-0.147-0.002-0.235c-0.005-0.176-0.011-0.386-0.031-0.625
			c-0.019-0.238-0.049-0.505-0.096-0.791s-0.11-0.594-0.192-0.914c-0.083-0.319-0.182-0.653-0.292-0.998
			c-0.109-0.345-0.228-0.702-0.366-1.062s-0.299-0.721-0.481-1.071c-0.183-0.35-0.381-0.693-0.588-1.026
			C8.03,8.32,7.816,7.998,7.6,7.691C7.385,7.385,7.165,7.096,6.954,6.823C6.742,6.552,6.534,6.3,6.338,6.07S5.959,5.633,5.793,5.452
			S5.479,5.115,5.357,4.988C5.112,4.733,4.965,4.597,4.965,4.597L5.02,4.53z"/>
		<path fill="#63B6AE" d="M26.755,4.597c0,0-0.146,0.137-0.392,0.392c-0.123,0.127-0.27,0.283-0.436,0.464
			c-0.167,0.181-0.349,0.389-0.546,0.618c-0.195,0.229-0.403,0.481-0.615,0.753c-0.212,0.272-0.432,0.562-0.646,0.868
			c-0.216,0.307-0.43,0.629-0.638,0.96c-0.207,0.333-0.405,0.677-0.589,1.026c-0.182,0.351-0.343,0.711-0.48,1.071
			c-0.139,0.36-0.257,0.718-0.366,1.062c-0.11,0.345-0.209,0.679-0.292,0.998c-0.082,0.32-0.145,0.628-0.192,0.914
			c-0.047,0.286-0.077,0.553-0.096,0.791c-0.021,0.239-0.026,0.449-0.031,0.625c-0.001,0.088-0.002,0.167-0.003,0.235
			c-0.001,0.069,0.003,0.127,0.002,0.176c0.001,0.096,0,0.147,0,0.147l-0.082,0.021c0,0-0.023-0.046-0.064-0.136
			c-0.043-0.089-0.095-0.222-0.156-0.396c-0.056-0.175-0.119-0.391-0.164-0.645c-0.026-0.127-0.042-0.263-0.061-0.407
			c-0.006-0.072-0.012-0.146-0.019-0.223s-0.006-0.154-0.01-0.233c-0.008-0.319,0.011-0.666,0.062-1.028
			c0.05-0.362,0.136-0.739,0.261-1.116c0.124-0.376,0.291-0.75,0.482-1.115c0.19-0.366,0.399-0.727,0.616-1.079
			c0.218-0.353,0.449-0.695,0.688-1.023c0.237-0.329,0.487-0.639,0.735-0.933s0.494-0.57,0.737-0.825
			c0.241-0.255,0.477-0.489,0.696-0.701c0.221-0.213,0.429-0.4,0.614-0.564c0.186-0.165,0.351-0.305,0.489-0.417
			C26.536,4.651,26.7,4.53,26.7,4.53L26.755,4.597z"/>
	</g>
</g>
</svg>
