<?xml version="1.0" encoding="utf-8"?>
<!-- Generator: Adobe Illustrator 16.0.0, SVG Export Plug-In . SVG Version: 6.00 Build 0)  -->
<!DOCTYPE svg PUBLIC "-//W3C//DTD SVG 1.1//EN" "http://www.w3.org/Graphics/SVG/1.1/DTD/svg11.dtd">
<svg version="1.1" id="Layer_1" xmlns="http://www.w3.org/2000/svg" xmlns:xlink="http://www.w3.org/1999/xlink" x="0px" y="0px"
  width="48px" height="36px" viewBox="0 0 48 36" enable-background="new 0 0 48 36" xml:space="preserve">
<path fill="#424143" d="M4.602-7.027"/>
<g>
 <polygon fill="#424143" points="9.79,9.459 12.024,1.537 9.311,4.874 8.32,6.778"/>
 <path fill="#424143" d="M2.417,9.519"/>
 <polygon fill="#424143" points="9.263,10.16 6.323,11.401 2.147,10.055 2.512,9.149 7.588,7.127"/>
 <polygon fill="#424143" points="9.83,3.031 9.331,0.548 8.146,4.601 7.898,6.146 8.883,4.063"/>
 <path fill="#424143" d="M9.156,5.185"/>
 <polygon fill="#424143" points="13.2,15.512 7.176,16.478 6.092,17.779 10.912,17.995"/>
 <polygon fill="#424143" points="6.155,18.474 6.707,21.396 7.477,18.579"/>
 <polygon fill="#424143" points="23.396,35.396 19.216,30.578 19.228,29.852 23.839,31.625"/>
 <polygon fill="#424143" points="13.136,31.979 4.331,31.907 12.093,30.758 12.437,27.774 13.259,28.292"/>
 <polygon fill="#424143" points="6.952,12.111 8.44,15.422 12.701,14.705 9.82,10.978"/>
 <polygon fill="#424143" points="13.807,16.105 15.22,17.568 18.537,20.344 16.11,26.271 13.99,27.731 8.937,24.657 9.166,18.739
                                 11.356,18.816"/>
 <polygon fill="#424143" points="24.166,35.452 46.019,34.926 24.562,31.735"/>
 <polygon fill="#424143" points="13.96,28.72 13.782,32.786 5.964,34.55 15.966,34.779 17.371,29.023 16.306,27.165"/>
 <polygon fill="#424143" points="19.169,21.011 16.915,26.708 18.022,28.528 24.195,30.883 27.304,31.339"/>
</g>
</svg>
