<?xml version="1.0" encoding="iso-8859-1"?>
<!-- Generator: Adobe Illustrator 16.0.0, SVG Export Plug-In . SVG Version: 6.00 Build 0)  -->
<!DOCTYPE svg PUBLIC "-//W3C//DTD SVG 1.1//EN" "http://www.w3.org/Graphics/SVG/1.1/DTD/svg11.dtd">
<svg version="1.1" id="Layer_1" xmlns="http://www.w3.org/2000/svg" xmlns:xlink="http://www.w3.org/1999/xlink" x="0px" y="0px"
	 width="96px" height="96px" viewBox="0 0 96 96" style="enable-background:new 0 0 96 96;" xml:space="preserve">
<g>
	<g>
		<path style="fill:#AAAAAA;" d="M66,32.998c3.312,0,5.996-2.687,5.996-6c0-3.314-2.684-6-5.996-6s-5.996,2.686-5.996,6
			C60.004,30.312,62.688,32.998,66,32.998z M66,35.002c-4.419,0-8,0.617-8,4.77c0,7.18,4.281,17.23,8,17.23s8-10.051,8-17.23
			C74,35.619,70.418,35.002,66,35.002z"/>
	</g>
</g>
<g>
	<g>
		<path style="fill:#AAAAAA;" d="M30,32.998c3.312,0,5.996-2.687,5.996-6c0-3.314-2.684-6-5.996-6s-5.996,2.686-5.996,6
			C24.004,30.312,26.688,32.998,30,32.998z M30,35.002c-4.419,0-8,0.617-8,4.77c0,7.18,4.281,17.23,8,17.23s8-10.051,8-17.23
			C38,35.619,34.418,35.002,30,35.002z"/>
	</g>
</g>
<g>
	<path style="fill:#737373;" d="M35.806,76.235h-2.9V85.5h-1.062v-9.265H29v-0.89h6.806V76.235z"/>
	<path style="fill:#737373;" d="M45.884,76.235h-4.231v3.609h3.042v0.889h-3.042v3.879h4.33V85.5h-5.391V75.346h5.292V76.235z"/>
	<path style="fill:#737373;" d="M56.965,85.5h-1.146l-0.906-2.99h-3.099l-0.906,2.99h-1.146l3.595-11L56.965,85.5z M52.069,81.622
		h2.59l-1.302-4.104L52.069,81.622z"/>
	<path style="fill:#737373;" d="M65.953,75.346H67V85.5h-1.061v-7.728h-0.028l-2.095,4.978l-2.08-4.978L61.708,77.8v7.7h-1.061
		V75.346h1.032l2.137,5.063L65.953,75.346z"/>
</g>
<g>
	<g>
		<path style="fill-rule:evenodd;clip-rule:evenodd;fill:#737373;" d="M48,34.403c-6.628,0-12,0.897-12,6.938
			c0,10.443,7.873,25.062,12,25.062c4.127,0,12-14.619,12-25.062C60,35.3,54.627,34.403,48,34.403z M48,32.397
			c4.417,0,7.995-3.582,7.995-8s-3.578-8-7.995-8c-4.416,0-7.996,3.582-7.996,8S43.583,32.397,48,32.397z"/>
	</g>
</g>
</svg>
